<?xml version="1.0" encoding="UTF-8"?>
<svg version="1.1" xmlns="http://www.w3.org/2000/svg" width="256" height="256">
<path d="M0 0 C20.21324145 17.61215767 33.83970803 39.85508255 40.39453125 65.8203125 C40.55824219 66.46871094 40.72195312 67.11710937 40.890625 67.78515625 C48.89602858 101.19613812 40.9668817 134.95018021 23.39453125 163.8203125 C20.1118921 168.82354784 16.40905699 173.38993411 12.39453125 177.8203125 C11.89195801 178.37654297 11.38938477 178.93277344 10.87158203 179.50585938 C-10.49433617 202.75602652 -40.7547188 218.16239357 -72.46044922 219.984375 C-85.43367679 220.48843435 -97.98977894 219.99155554 -110.60546875 216.8203125 C-111.25354492 216.65934082 -111.90162109 216.49836914 -112.56933594 216.33251953 C-144.78826449 208.00169374 -172.09793135 187.18311107 -189.41650391 158.84863281 C-205.80562752 130.8895283 -211.12685655 97.40262613 -203.60546875 65.8203125 C-196.46104217 38.6755711 -182.04775299 15.97030361 -160.73046875 -2.3046875 C-160.19518555 -2.76625244 -159.65990234 -3.22781738 -159.10839844 -3.70336914 C-156.09693349 -6.2102485 -153.33321895 -7.95544481 -149.60546875 -9.1796875 C-149.60546875 -9.8396875 -149.60546875 -10.4996875 -149.60546875 -11.1796875 C-99.8832468 -37.58390192 -44.40306591 -37.14679277 0 0 Z " fill="#B3111B" transform="translate(209.60546875,33.1796875)"/>
<path d="M0 0 C0.99 0.66 1.98 1.32 3 2 C3 2.99 3 3.98 3 5 C1.02921494 6.8960008 -1.09039041 8.50764672 -3.25 10.18359375 C-5.46254682 12.05972096 -5.46254682 12.05972096 -5 16 C-1.05972212 16.44884733 -1.05972212 16.44884733 0.921875 14.25 C1.52515625 13.5075 2.1284375 12.765 2.75 12 C3.36359375 11.2575 3.9771875 10.515 4.609375 9.75 C5.06828125 9.1725 5.5271875 8.595 6 8 C7.32 8.33 8.64 8.66 10 9 C9.3055165 13.53398513 6.75600716 15.26118758 3.3984375 18.12109375 C1.73973522 19.93087119 1.73973522 19.93087119 2.1328125 22.39453125 C3.05222193 25.15690102 4.19214401 27.64949565 5.5 30.25 C7.84625686 35.32116037 8.87518268 39.44562907 9 45 C9.03867188 45.99902344 9.07734375 46.99804688 9.1171875 48.02734375 C9.55924219 68.68112114 3.55362239 87.58314651 -10.59765625 102.83203125 C-21.39488585 113.80482555 -35.48969084 118.02810737 -50.5625 118.3125 C-61.9763214 118.33628155 -70.54253661 115.73767927 -79 108 C-82.53144476 108.26588098 -83.08947271 109.10038401 -85.5625 111.875 C-86.7690625 113.421875 -86.7690625 113.421875 -88 115 C-89.5625 116.9375 -89.5625 116.9375 -91 118 C-93.1875 117.6875 -93.1875 117.6875 -95 117 C-94.52590352 112.68269587 -91.96603297 110.66352539 -88.9375 107.75 C-88.01839844 106.85796875 -87.09929687 105.9659375 -86.15234375 105.046875 C-85.44207031 104.37140625 -84.73179688 103.6959375 -84 103 C-84.66 101.35 -85.32 99.7 -86 98 C-90.37829317 99.84709243 -92.87879046 102.93708858 -96 106.41796875 C-98 108 -98 108 -100.25 107.73828125 C-100.8275 107.49464844 -101.405 107.25101562 -102 107 C-101.52120052 102.71075465 -99.0280703 100.75682827 -96 97.875 C-91.57119296 94.1223739 -91.57119296 94.1223739 -89.91821289 88.91552734 C-89.9361792 88.0642627 -89.95414551 87.21299805 -89.97265625 86.3359375 C-89.99368408 84.91172485 -89.99368408 84.91172485 -90.01513672 83.45874023 C-90.03858154 81.93228882 -90.03858154 81.93228882 -90.0625 80.375 C-90.18071628 57.24938782 -85.91288593 39.74886578 -69.875 22.3125 C-58.65170909 11.5528218 -44.79158617 6.38954226 -29.31640625 6.6875 C-24.68492092 7.12391793 -20.33295752 8.23510993 -15.875 9.5390625 C-12.43510366 10.09056762 -11.01855553 9.69393654 -8 8 C-5.7239295 6.08376553 -5.7239295 6.08376553 -3.6875 3.875 C-2.99011719 3.15054688 -2.29273438 2.42609375 -1.57421875 1.6796875 C-1.05472656 1.12539062 -0.53523438 0.57109375 0 0 Z " fill="#B7131E" transform="translate(169,63)"/>
<path d="M0 0 C0.99 0.66 1.98 1.32 3 2 C3 2.99 3 3.98 3 5 C1.02921494 6.8960008 -1.09039041 8.50764672 -3.25 10.18359375 C-5.46254682 12.05972096 -5.46254682 12.05972096 -5 16 C-1.05972212 16.44884733 -1.05972212 16.44884733 0.921875 14.25 C1.52515625 13.5075 2.1284375 12.765 2.75 12 C3.36359375 11.2575 3.9771875 10.515 4.609375 9.75 C5.06828125 9.1725 5.5271875 8.595 6 8 C7.32 8.33 8.64 8.66 10 9 C9.3055165 13.53398513 6.75600716 15.26118758 3.3984375 18.12109375 C1.73973522 19.93087119 1.73973522 19.93087119 2.1328125 22.39453125 C3.05222193 25.15690102 4.19214401 27.64949565 5.5 30.25 C7.84625686 35.32116037 8.87518268 39.44562907 9 45 C9.03867188 45.99902344 9.07734375 46.99804688 9.1171875 48.02734375 C9.55924219 68.68112114 3.55362239 87.58314651 -10.59765625 102.83203125 C-21.39488585 113.80482555 -35.48969084 118.02810737 -50.5625 118.3125 C-61.9763214 118.33628155 -70.54253661 115.73767927 -79 108 C-82.53144476 108.26588098 -83.08947271 109.10038401 -85.5625 111.875 C-86.7690625 113.421875 -86.7690625 113.421875 -88 115 C-89.5625 116.9375 -89.5625 116.9375 -91 118 C-93.1875 117.6875 -93.1875 117.6875 -95 117 C-94.52590352 112.68269587 -91.96603297 110.66352539 -88.9375 107.75 C-88.01839844 106.85796875 -87.09929687 105.9659375 -86.15234375 105.046875 C-85.44207031 104.37140625 -84.73179688 103.6959375 -84 103 C-84.66 101.35 -85.32 99.7 -86 98 C-90.37829317 99.84709243 -92.87879046 102.93708858 -96 106.41796875 C-98 108 -98 108 -100.25 107.73828125 C-100.8275 107.49464844 -101.405 107.25101562 -102 107 C-101.52120052 102.71075465 -99.0280703 100.75682827 -96 97.875 C-91.57119296 94.1223739 -91.57119296 94.1223739 -89.91821289 88.91552734 C-89.9361792 88.0642627 -89.95414551 87.21299805 -89.97265625 86.3359375 C-89.99368408 84.91172485 -89.99368408 84.91172485 -90.01513672 83.45874023 C-90.03858154 81.93228882 -90.03858154 81.93228882 -90.0625 80.375 C-90.18071628 57.24938782 -85.91288593 39.74886578 -69.875 22.3125 C-58.65170909 11.5528218 -44.79158617 6.38954226 -29.31640625 6.6875 C-24.68492092 7.12391793 -20.33295752 8.23510993 -15.875 9.5390625 C-12.43510366 10.09056762 -11.01855553 9.69393654 -8 8 C-5.7239295 6.08376553 -5.7239295 6.08376553 -3.6875 3.875 C-2.99011719 3.15054688 -2.29273438 2.42609375 -1.57421875 1.6796875 C-1.05472656 1.12539062 -0.53523438 0.57109375 0 0 Z M-54.01953125 23.20703125 C-61.55480155 33.8336945 -65.4424636 45.32791289 -68 58 C-68.1750708 58.76795898 -68.3501416 59.53591797 -68.53051758 60.32714844 C-69.47067611 65.67964748 -69.22745168 71.14244766 -69.25 76.5625 C-69.270625 77.77486328 -69.29125 78.98722656 -69.3125 80.23632812 C-69.36172263 91.71135342 -68.15284343 103.25247858 -60 112 C-54.91274005 115.16753922 -49.8652096 115.91864729 -44 115 C-32.5628556 110.99597279 -25.67187067 101.36223944 -20.44921875 90.890625 C-12.13753546 70.6132057 -7.59076423 43.84254489 -14.8046875 22.73046875 C-17.0371709 17.63077627 -19.26047086 15.04371748 -24.125 12.125 C-36.85247194 7.55971115 -45.95144441 13.5929637 -54.01953125 23.20703125 Z " fill="#FCF9F9" transform="translate(169,63)"/>
<path d="M0 0 C-0.2165625 0.8353125 -0.2165625 0.8353125 -0.4375 1.6875 C-0.623125 2.450625 -0.80875 3.21375 -1 4 C-1.185625 4.70125 -1.37125 5.4025 -1.5625 6.125 C-2.1079133 9.70914452 -2.02430377 13.17433663 -1.9375 16.79296875 C-2 19 -2 19 -3 21 C-2.34 21.33 -1.68 21.66 -1 22 C-0.92514144 26.25004671 -0.87106833 30.49973134 -0.83520508 34.75024414 C-0.82023492 36.19236955 -0.79985132 37.63445036 -0.77368164 39.07641602 C-0.62941155 47.23757713 -0.80112998 54.35405043 -4 62 C-4.40994548 63.63747887 -4.79568053 65.28192123 -5.125 66.9375 C-5.58092996 69.20515164 -5.96300867 70.92601734 -7 73 C-7.66 73 -8.32 73 -9 73 C-9 73.99 -9 74.98 -9 76 C-8.01 76.33 -7.02 76.66 -6 77 C-7.8125 78.0625 -7.8125 78.0625 -10 79 C-10.99 78.67 -11.98 78.34 -13 78 C-12.60167969 77.26136719 -12.20335937 76.52273437 -11.79296875 75.76171875 C-4.40188939 61.60897067 -2.60569555 48.79189329 -3 33 C-3.00515625 32.20464844 -3.0103125 31.40929687 -3.015625 30.58984375 C-3.32413404 24.51882653 -5.82095646 20.02155972 -8.8203125 14.796875 C-10.19025572 11.54893015 -10.23030163 10.27185019 -9 7 C-7.44140625 4.98046875 -7.44140625 4.98046875 -5.5625 3.1875 C-4.94503906 2.58292969 -4.32757813 1.97835937 -3.69140625 1.35546875 C-2 0 -2 0 0 0 Z " fill="#9F1B27" transform="translate(180,75)"/>
<path d="M0 0 C0.33 0.66 0.66 1.32 1 2 C0.34 1.67 -0.32 1.34 -1 1 C-0.67 0.67 -0.34 0.34 0 0 Z M18 -1 C18.495 0.98 18.495 0.98 19 3 C16.82802592 5.277602 14.65520327 7.29754614 12 9 C8.11022632 9 5.09592636 8.02811635 1.375 6.9375 C-7.62611556 4.61744502 -17.10593573 5.75138781 -26 8 C-26 6 -26 6 -24 4 C-23.67 3.34 -23.34 2.68 -23 2 C-21.35 2 -19.7 2 -18 2 C-18 2.66 -18 3.32 -18 4 C-15.69 4 -13.38 4 -11 4 C-11 3.34 -11 2.68 -11 2 C-7.7 2 -4.4 2 -1 2 C-1 2.99 -1 3.98 -1 5 C3.29 5 7.58 5 12 5 C12 4.34 12 3.68 12 3 C13.65 3 15.3 3 17 3 C17.33 1.68 17.66 0.36 18 -1 Z " fill="#A8151E" transform="translate(146,65)"/>
<path d="M0 0 C1.11375 0.7115625 1.11375 0.7115625 2.25 1.4375 C7.75653341 4.56621217 13.98045213 4.84351826 20.140625 3.55078125 C21.77510452 3.08236334 23.39043384 2.54793742 25 2 C24.67 2.99 24.34 3.98 24 5 C26.64 4.67 29.28 4.34 32 4 C26.66545599 9.33454401 16.00946322 8.3113018 8.87060547 8.31298828 C3.20737895 8.19179877 -1.76556048 7.11390827 -7 5 C-7 4.67 -7 4.34 -7 4 C-5.02 3.67 -3.04 3.34 -1 3 C-0.67 2.01 -0.34 1.02 0 0 Z " fill="#F6E5E5" transform="translate(107,173)"/>
<path d="M0 0 C-1.8125 1.0625 -1.8125 1.0625 -4 2 C-4.99 1.67 -5.98 1.34 -7 1 C-6.34 3.31 -5.68 5.62 -5 8 C-5.66 8 -6.32 8 -7 8 C-7.763125 7.21625 -8.52625 6.4325 -9.3125 5.625 C-14.03846863 1.00893762 -18.66638171 0.64409678 -25 0 C-25 -0.33 -25 -0.66 -25 -1 C-31.28202587 -1.24326625 -31.28202587 -1.24326625 -37 1 C-39.75 1.125 -39.75 1.125 -42 1 C-31.85541142 -9.14458858 -11.96015829 -3.70549856 0 0 Z " fill="#F2D5D6" transform="translate(158,74)"/>
<path d="M0 0 C4.27296618 1.91655101 6.66845605 3.8634011 8.625 8.265625 C7.635 8.265625 6.645 8.265625 5.625 8.265625 C5.625 7.275625 5.625 6.285625 5.625 5.265625 C-0.44196699 4.49521649 -6.26014973 4.16856388 -12.375 4.265625 C-12.375 3.605625 -12.375 2.945625 -12.375 2.265625 C-15.4581351 3.46462198 -18.43779492 4.74262977 -21.375 6.265625 C-21.045 7.915625 -20.715 9.565625 -20.375 11.265625 C-23.345 10.770625 -23.345 10.770625 -26.375 10.265625 C-19.57149383 1.12341359 -11.56863345 -3.57714324 0 0 Z " fill="#A8212A" transform="translate(143.375,74.734375)"/>
<path d="M0 0 C1.74627478 2.61941217 2.38722388 4.03824877 3 7 C2.46890625 7.45890625 1.9378125 7.9178125 1.390625 8.390625 C0.68421875 9.00421875 -0.0221875 9.6178125 -0.75 10.25 C-1.4821875 10.88421875 -2.214375 11.5184375 -2.96875 12.171875 C-5.11197917 14.03645833 -5.11197917 14.03645833 -7.25 16.5 C-7.8275 16.995 -8.405 17.49 -9 18 C-11.25 17.75 -11.25 17.75 -13 17 C-12.51518423 12.73560005 -10.07817386 10.80606782 -7.0625 7.9375 C-4.35144223 5.34346631 -2.08445813 3.12668719 0 0 Z " fill="#F2E2E1" transform="translate(80,153)"/>
<path d="M0 0 C0.33 1.32 0.66 2.64 1 4 C0.34 4 -0.32 4 -1 4 C-1 4.66 -1 5.32 -1 6 C-0.01 6.66 0.98 7.32 2 8 C-0.31 10.64 -2.62 13.28 -5 16 C-6.32 15.34 -7.64 14.68 -9 14 C-9 10 -9 10 -7.5390625 8.078125 C-6.90742188 7.47484375 -6.27578125 6.8715625 -5.625 6.25 C-4.99851563 5.63640625 -4.37203125 5.0228125 -3.7265625 4.390625 C-2 3 -2 3 0 3 C0 2.01 0 1.02 0 0 Z " fill="#A4242F" transform="translate(172,65)"/>
<path d="M0 0 C1.32 0.33 2.64 0.66 4 1 C3.42846829 4.5622867 2.17941769 6.13056194 -0.4375 8.5625 C-2.69526817 10.67886307 -4.26012523 12.39018785 -6 15 C-6.33 14.01 -6.66 13.02 -7 12 C-9.01508358 11.26676204 -9.01508358 11.26676204 -11 11 C-10 9 -10 9 -8.140625 8.1015625 C-5.70172714 6.84650922 -4.47387115 5.49066005 -2.75 3.375 C-2.22921875 2.74335937 -1.7084375 2.11171875 -1.171875 1.4609375 C-0.78515625 0.97882813 -0.3984375 0.49671875 0 0 Z " fill="#F7E8EA" transform="translate(175,71)"/>
<path d="M0 0 C0.99 0.66 1.98 1.32 3 2 C3 2.99 3 3.98 3 5 C1.02921494 6.8960008 -1.09039041 8.50764672 -3.25 10.18359375 C-5.46254682 12.05972096 -5.46254682 12.05972096 -5 16 C-5.99 16 -6.98 16 -8 16 C-8.99 14.02 -9.98 12.04 -11 10 C-10.45730469 9.52949219 -9.91460937 9.05898437 -9.35546875 8.57421875 C-8.64003906 7.95160156 -7.92460937 7.32898438 -7.1875 6.6875 C-6.47980469 6.07261719 -5.77210938 5.45773438 -5.04296875 4.82421875 C-3.29863261 3.26665665 -1.63221959 1.67341125 0 0 Z " fill="#F9EDEE" transform="translate(169,63)"/>
<path d="M0 0 C1.8125 0.875 1.8125 0.875 2.8125 2.875 C1.8225 3.431875 1.8225 3.431875 0.8125 4 C-1.68107923 5.55848702 -3.88500088 7.18590978 -6.1875 9 C-9.85067136 11.79230421 -12.56264459 12.875 -17.1875 12.875 C-16.8575 10.565 -16.5275 8.255 -16.1875 5.875 C-15.5275 6.205 -14.8675 6.535 -14.1875 6.875 C-14.1875 7.865 -14.1875 8.855 -14.1875 9.875 C-13.1975 10.205 -12.2075 10.535 -11.1875 10.875 C-10.8575 9.885 -10.5275 8.895 -10.1875 7.875 C-9.5275 7.875 -8.8675 7.875 -8.1875 7.875 C-7.94 7.2975 -7.6925 6.72 -7.4375 6.125 C-3.91057692 -0.22346154 -3.91057692 -0.22346154 0 0 Z " fill="#A42129" transform="translate(89.1875,170.125)"/>
<path d="M0 0 C-0.8125 1.9375 -0.8125 1.9375 -2 4 C-2.99 4.33 -3.98 4.66 -5 5 C-5 5.66 -5 6.32 -5 7 C-12.92 6.34 -20.84 5.68 -29 5 C-29 4.67 -29 4.34 -29 4 C-28.14619751 3.92483154 -28.14619751 3.92483154 -27.27514648 3.84814453 C-24.66191893 3.61407662 -22.04976061 3.3696142 -19.4375 3.125 C-18.54224609 3.04636719 -17.64699219 2.96773437 -16.72460938 2.88671875 C-11.22180136 2.3626418 -5.36416302 0 0 0 Z " fill="#AC3540" transform="translate(141,177)"/>
<path d="M0 0 C-0.78697325 3.41021743 -1.87119943 6.68885166 -3 10 C-3.66 10 -4.32 10 -5 10 C-5.66 11.65 -6.32 13.3 -7 15 C-8.5625 13.8125 -8.5625 13.8125 -10 12 C-10.1686791 8.96377624 -9.36056485 7.43249799 -7.43359375 5.12109375 C-2.4780303 0 -2.4780303 0 0 0 Z " fill="#A31F28" transform="translate(180,75)"/>
<path d="M0 0 C0.33 1.32 0.66 2.64 1 4 C-1.17188321 6.27750671 -3.34902142 8.29170732 -6 10 C-11.54518287 10.10268857 -16.8133088 7.87003152 -22 6 C-19 5 -19 5 -16 6 C-14.27204648 6.06802967 -12.54164635 6.08495645 -10.8125 6.0625 C-9.91144531 6.05347656 -9.01039063 6.04445313 -8.08203125 6.03515625 C-7.05142578 6.01775391 -7.05142578 6.01775391 -6 6 C-6 5.34 -6 4.68 -6 4 C-4.35 4 -2.7 4 -1 4 C-0.67 2.68 -0.34 1.36 0 0 Z " fill="#AA2833" transform="translate(164,64)"/>
<path d="M0 0 C0.33 0 0.66 0 1 0 C1.05449838 1.72880982 1.09301688 3.45812712 1.125 5.1875 C1.14820313 6.15042969 1.17140625 7.11335937 1.1953125 8.10546875 C0.98879929 11.16599448 0.21727386 13.20610944 -1 16 C-1.38917356 17.55415064 -1.74521944 19.11709454 -2.0625 20.6875 C-2.53756023 23.02354 -2.93223922 24.86447844 -4 27 C-4.66 27 -5.32 27 -6 27 C-6 27.99 -6 28.98 -6 30 C-5.01 30.33 -4.02 30.66 -3 31 C-4.8125 32.0625 -4.8125 32.0625 -7 33 C-7.99 32.67 -8.98 32.34 -10 32 C-9.60167969 31.26136719 -9.20335937 30.52273437 -8.79296875 29.76171875 C-3.69564212 20.00114441 -0.89821585 10.95823331 0 0 Z " fill="#A43C45" transform="translate(177,121)"/>
<path d="M0 0 C0.66 0.66 1.32 1.32 2 2 C1.625 4.125 1.625 4.125 1 6 C-1.97 5.505 -1.97 5.505 -5 5 C-5.33 5.99 -5.66 6.98 -6 8 C-6.99 8.495 -6.99 8.495 -8 9 C-9.13350534 11.01669827 -9.13350534 11.01669827 -10 13 C-10.99 12.67 -11.98 12.34 -13 12 C-13 10.68 -13 9.36 -13 8 C-10.41015625 6.11328125 -10.41015625 6.11328125 -7.0625 4.3125 C-3.30836224 2.47306493 -3.30836224 2.47306493 0 0 Z " fill="#9A1C27" transform="translate(155,168)"/>
<path d="M0 0 C0.66 1.32 1.32 2.64 2 4 C0.37660195 5.70884005 -1.29319053 7.37446717 -3 9 C-3.66 9 -4.32 9 -5 9 C-5 9.99 -5 10.98 -5 12 C-6.65 12.33 -8.3 12.66 -10 13 C-6.73279209 8.61105071 -3.45101522 4.24740335 0 0 Z " fill="#962830" transform="translate(166,155)"/>
<path d="M0 0 C0.70189453 0.01353516 1.40378906 0.02707031 2.12695312 0.04101562 C3.85579829 0.07629818 5.58424765 0.13010417 7.3125 0.1875 C6.6525 1.5075 5.9925 2.8275 5.3125 4.1875 C2.3425 3.6925 2.3425 3.6925 -0.6875 3.1875 C-0.6875 2.5275 -0.6875 1.8675 -0.6875 1.1875 C-1.7703125 1.6825 -1.7703125 1.6825 -2.875 2.1875 C-5.70447427 3.19353529 -7.71645466 3.35727402 -10.6875 3.1875 C-7.97885416 -0.76650025 -4.33266512 -0.15777212 0 0 Z " fill="#A4101A" transform="translate(119.6875,181.8125)"/>
<path d="M0 0 C0.33 0.99 0.66 1.98 1 3 C1.66 3.33 2.32 3.66 3 4 C1.68 5.65 0.36 7.3 -1 9 C-2.32 8.67 -3.64 8.34 -5 8 C-4.45773019 4.20411134 -2.79872437 2.52788007 0 0 Z " fill="#F2DADB" transform="translate(79,172)"/>
<path d="M0 0 C1.32 0.66 2.64 1.32 4 2 C0.6189962 6.13621084 -2.66590534 9.81316569 -7 13 C-7 12.01 -7 11.02 -7 10 C-6.34 10 -5.68 10 -5 10 C-4.67 8.68 -4.34 7.36 -4 6 C-2.68 5.67 -1.36 5.34 0 5 C-0.2784375 4.0409375 -0.2784375 4.0409375 -0.5625 3.0625 C-0.706875 2.381875 -0.85125 1.70125 -1 1 C-0.67 0.67 -0.34 0.34 0 0 Z " fill="#A21723" transform="translate(72,156)"/>
<path d="M0 0 C0.33 1.32 0.66 2.64 1 4 C0.34 4 -0.32 4 -1 4 C-1 4.66 -1 5.32 -1 6 C-0.01 6.66 0.98 7.32 2 8 C0.68 9.32 -0.64 10.64 -2 12 C-2.45375 11.525625 -2.9075 11.05125 -3.375 10.5625 C-4.93258204 8.90972192 -4.93258204 8.90972192 -7 8 C-5.37660195 6.29115995 -3.70680947 4.62553283 -2 3 C-1.34 3 -0.68 3 0 3 C0 2.01 0 1.02 0 0 Z " fill="#AD2935" transform="translate(172,65)"/>
<path d="M0 0 C5.61 0 11.22 0 17 0 C17 0.33 17 0.66 17 1 C15.96359375 1.13277344 14.9271875 1.26554687 13.859375 1.40234375 C12.48956735 1.58060639 11.11977656 1.75899862 9.75 1.9375 C9.06808594 2.02451172 8.38617188 2.11152344 7.68359375 2.20117188 C4.39963389 2.6315938 1.18809706 3.08794131 -2 4 C-1.34 2.68 -0.68 1.36 0 0 Z " fill="#FDFAFC" transform="translate(125,72)"/>
<path d="M0 0 C3.3 0 6.6 0 10 0 C10 0.99 10 1.98 10 3 C6.7 3 3.4 3 0 3 C0 2.01 0 1.02 0 0 Z " fill="#FDF5F6" transform="translate(114,178)"/>
<path d="M0 0 C2 0.3125 2 0.3125 4 1 C4.33 1.66 4.66 2.32 5 3 C2.32521756 4.6627026 0.0004856 5.99983813 -3 7 C-1.125 1.125 -1.125 1.125 0 0 Z " fill="#9E202B" transform="translate(87,170)"/>
<path d="M0 0 C1.65 0 3.3 0 5 0 C1.53258866 2.95749791 -1.86873527 5.07848152 -6 7 C-6.33 6.34 -6.66 5.68 -7 5 C-6.67 4.01 -6.34 3.02 -6 2 C-4.35 2.33 -2.7 2.66 -1 3 C-0.67 2.01 -0.34 1.02 0 0 Z " fill="#A61E2A" transform="translate(109,75)"/>
<path d="M0 0 C0 2.83967231 -0.40267181 5.23735711 -1 8 C-3.66666667 8.66666667 -6.33333333 9.33333333 -9 10 C-7.71937515 8.2925002 -6.38232443 6.62626404 -5 5 C-4.34 5 -3.68 5 -3 5 C-2.690625 4.360625 -2.38125 3.72125 -2.0625 3.0625 C-1 1 -1 1 0 0 Z " fill="#F0DADA" transform="translate(141,165)"/>
<path d="M0 0 C0 3.95566141 -1.39609149 5.09914371 -3.875 8.125 C-4.59429687 9.01445312 -5.31359375 9.90390625 -6.0546875 10.8203125 C-8 13 -8 13 -10 14 C-8.62815653 9.93501119 -6.77931541 7.32603439 -3.875 4.1875 C-3.15054688 3.39730469 -2.42609375 2.60710937 -1.6796875 1.79296875 C-1.12539062 1.20128906 -0.57109375 0.60960937 0 0 Z " fill="#C90001" transform="translate(229,199)"/>
<path d="M0 0 C0.66 0.33 1.32 0.66 2 1 C2 3.31 2 5.62 2 8 C0.35 7.67 -1.3 7.34 -3 7 C-2.67 5.35 -2.34 3.7 -2 2 C-1.34 2 -0.68 2 0 2 C0 1.34 0 0.68 0 0 Z " fill="#A60D1A" transform="translate(74,150)"/>
<path d="M0 0 C0.33 0.66 0.66 1.32 1 2 C0.0625 4.625 0.0625 4.625 -1 7 C-2.98 7 -4.96 7 -7 7 C-7 6.34 -7 5.68 -7 5 C-5.35 4.67 -3.7 4.34 -2 4 C-2 3.01 -2 2.02 -2 1 C-1.34 0.67 -0.68 0.34 0 0 Z " fill="#A40C18" transform="translate(163,163)"/>
<path d="M0 0 C1.875 0.3125 1.875 0.3125 4 1 C4.66 1.99 5.32 2.98 6 4 C4.68 4.99 3.36 5.98 2 7 C2 6.01 2 5.02 2 4 C1.01 3.67 0.02 3.34 -1 3 C-0.67 2.01 -0.34 1.02 0 0 Z " fill="#AA1A24" transform="translate(163,60)"/>
<path d="M0 0 C-0.62759865 2.92879371 -1.58622659 5.36095629 -3 8 C-3.66 8 -4.32 8 -5 8 C-5.36625971 3.48279689 -5.36625971 3.48279689 -3.625 1.1875 C-2 0 -2 0 0 0 Z " fill="#AA1624" transform="translate(180,75)"/>
<path d="M0 0 C0.33 0.66 0.66 1.32 1 2 C0 4.5625 0 4.5625 -2 7 C-5.6875 7.8125 -5.6875 7.8125 -9 8 C-7.88625 7.13375 -7.88625 7.13375 -6.75 6.25 C-4.33912357 4.27746474 -2.15957299 2.23955718 0 0 Z " fill="#A02933" transform="translate(77,164)"/>
<path d="M0 0 C0.66 0.99 1.32 1.98 2 3 C1.25 5.4375 1.25 5.4375 0 8 C-0.37125 8.763125 -0.7425 9.52625 -1.125 10.3125 C-1.558125 11.1478125 -1.558125 11.1478125 -2 12 C-3.12377697 8.69564916 -2.89554742 6.9493138 -1.5625 3.75 C-1.27503906 3.04359375 -0.98757812 2.3371875 -0.69140625 1.609375 C-0.46324219 1.07828125 -0.23507813 0.5471875 0 0 Z " fill="#EDD3D0" transform="translate(84,107)"/>
<path d="M0 0 C0 0.66 0 1.32 0 2 C-0.66 2 -1.32 2 -2 2 C-2 3.32 -2 4.64 -2 6 C-3.32 5.67 -4.64 5.34 -6 5 C-5.6875 3.0625 -5.6875 3.0625 -5 1 C-2 0 -2 0 0 0 Z " fill="#F5E5E5" transform="translate(73,165)"/>
<path d="M0 0 C-0.75 1.9375 -0.75 1.9375 -2 4 C-4.125 4.75 -4.125 4.75 -6 5 C-6 4.34 -6 3.68 -6 3 C-6.99 2.67 -7.98 2.34 -9 2 C-2.25 0 -2.25 0 0 0 Z " fill="#A92835" transform="translate(141,177)"/>
<path d="M0 0 C0.33 0.99 0.66 1.98 1 3 C-1.04074305 6.57130033 -2.55753136 8.7050209 -6 11 C-4.54955729 6.89041233 -2.48889248 3.56741255 0 0 Z " fill="#A82A32" transform="translate(116,85)"/>
<path d="M0 0 C0.33 0.66 0.66 1.32 1 2 C-1.40983607 6.70491803 -1.40983607 6.70491803 -4 8 C-4.66 7.34 -5.32 6.68 -6 6 C-5.01 5.67 -4.02 5.34 -3 5 C-1.8499169 3.03327085 -1.8499169 3.03327085 -1 1 C-0.67 0.67 -0.34 0.34 0 0 Z " fill="#A63943" transform="translate(84,173)"/>
<path d="M0 0 C0.33 0.66 0.66 1.32 1 2 C-0.125 4.5625 -0.125 4.5625 -2 7 C-4.6875 7.8125 -4.6875 7.8125 -7 8 C-6.02133662 6.85373678 -5.04205413 5.70800212 -4.0625 4.5625 C-3.51722656 3.92441406 -2.97195312 3.28632813 -2.41015625 2.62890625 C-1.63204305 1.73008851 -0.84063472 0.84063472 0 0 Z " fill="#F1CFD2" transform="translate(76,158)"/>
<path d="M0 0 C0.99 0.33 1.98 0.66 3 1 C2.25 2.9375 2.25 2.9375 1 5 C-1.125 5.75 -1.125 5.75 -3 6 C-2.42655063 3.13275314 -2.1385485 2.1385485 0 0 Z " fill="#9A1522" transform="translate(81,160)"/>
<path d="M0 0 C0.66 0 1.32 0 2 0 C2.33 1.65 2.66 3.3 3 5 C0.03 4.505 0.03 4.505 -3 4 C-1.625 2 -1.625 2 0 0 Z " fill="#A21A25" transform="translate(120,81)"/>
<path d="M0 0 C2.125 0.375 2.125 0.375 4 1 C3.625 2.9375 3.625 2.9375 3 5 C2.01 5.495 2.01 5.495 1 6 C1 5.01 1 4.02 1 3 C0.01 2.67 -0.98 2.34 -2 2 C-1.34 1.34 -0.68 0.68 0 0 Z " fill="#F6D9DA" transform="translate(175,71)"/>
<path d="M0 0 C0.66 0 1.32 0 2 0 C1.01 3.96 0.02 7.92 -1 12 C-2.05413042 7.78347832 -1.79607654 5.21920566 -1 1 C-0.67 0.67 -0.34 0.34 0 0 Z " fill="#F7E1DC" transform="translate(104,103)"/>
<path d="M0 0 C0.99 0 1.98 0 3 0 C1.8141763 3.37503669 0.72426311 5.64722731 -2 8 C-2.20086443 4.28400809 -2.1519437 3.22791555 0 0 Z " fill="#A22531" transform="translate(89,93)"/>
<path d="M0 0 C0.66 1.32 1.32 2.64 2 4 C0.68 5.32 -0.64 6.64 -2 8 C-1.125 1.125 -1.125 1.125 0 0 Z " fill="#9E1F27" transform="translate(166,155)"/>
<path d="M0 0 C0.99 0.66 1.98 1.32 3 2 C3 2.99 3 3.98 3 5 C2.01 5.33 1.02 5.66 0 6 C-0.33 5.34 -0.66 4.68 -1 4 C-1.66 3.67 -2.32 3.34 -3 3 C-2.01 2.01 -1.02 1.02 0 0 Z " fill="#F9DADC" transform="translate(169,63)"/>
<path d="M0 0 C1.65 0 3.3 0 5 0 C4.34 1.65 3.68 3.3 3 5 C2.01 4.67 1.02 4.34 0 4 C0 2.68 0 1.36 0 0 Z " fill="#9E161C" transform="translate(142,176)"/>
</svg>
